<?xml version="1.0" encoding="UTF-8" standalone="no"?>
<!-- Created with Inkscape (http://www.inkscape.org/) -->

<svg
   version="1.1"
   id="svg1"
   width="262.0434"
   height="207"
   viewBox="0 0 262.0434 207"
   sodipodi:docname="newsku.svg"
   inkscape:version="1.4.2 (ebf0e940d0, 2025-05-08)"
   xmlns:inkscape="http://www.inkscape.org/namespaces/inkscape"
   xmlns:sodipodi="http://sodipodi.sourceforge.net/DTD/sodipodi-0.dtd"
   xmlns="http://www.w3.org/2000/svg"
   xmlns:svg="http://www.w3.org/2000/svg">
  <defs
     id="defs1" />
  <sodipodi:namedview
     id="namedview1"
     pagecolor="#000000"
     bordercolor="#000000"
     borderopacity="0.25"
     inkscape:showpageshadow="2"
     inkscape:pageopacity="0.0"
     inkscape:pagecheckerboard="0"
     inkscape:deskcolor="#d1d1d1"
     inkscape:zoom="2.2186312"
     inkscape:cx="145.13453"
     inkscape:cy="162.48757"
     inkscape:window-width="2544"
     inkscape:window-height="1362"
     inkscape:window-x="26"
     inkscape:window-y="23"
     inkscape:window-maximized="0"
     inkscape:current-layer="g1" />
  <g
     inkscape:groupmode="layer"
     inkscape:label="Image"
     id="g1"
     transform="translate(-37.155097,-24.647816)">
    <path
       style="fill:#ff5722;fill-opacity:1"
       d="M 37.155097,128.14781 V 24.647816 h 23.4292 23.429196 l 14.8208,19.20993 c 8.151437,10.56546 17.103577,22.15296 19.893627,25.75 18.96678,24.45259 25.32994,32.707494 36.38657,47.204164 11.09016,14.54064 24.62421,31.93383 58.63283,75.3516 16.57438,21.16 28.61619,31.46923 42.66291,36.52456 l 5.24486,1.88759 -34.5685,0.0361 c -38.49035,0.0402 -40.74594,-0.25475 -49.10013,-6.41992 -2.78737,-2.05701 -10.36613,-10.81912 -18.80797,-21.74466 -55.99898,-72.47468 -72.617337,-93.74128 -73.273397,-93.76839 -0.4125,-0.017 -0.75,27.64402 -0.75,61.46902 v 61.5 h -23.999996 -24 z M 262.58922,226.5945 c -4.87224,-1.87459 -19.43413,-13.07945 -19.43413,-14.95387 0,-0.50066 2.31668,0.25332 5.14817,1.67549 6.06888,3.04823 15.39507,4.08424 21.61496,2.40114 5.20029,-1.40721 10.61139,-5.991 13.54578,-11.47477 l 2.19109,-4.09468 v -79.5 -79.499994 l -59.25,-0.25793 -59.25001,-0.25793 v 36.09517 36.095174 l -6.5,-8.25013 -6.5,-8.250134 -0.14685,-25.08711 c -0.0808,-13.79791 -0.15654,-26.43711 -0.16837,-28.08711 -0.0647,-9.02428 0.3355,-10.55151 3.73798,-14.26469 l 3.42275,-3.73531 62.82725,-0.30154 c 42.52046,-0.20407 64.01549,0.0442 66.50355,0.76807 2.02197,0.58827 4.84424,2.45759 6.2717,4.15404 l 2.5954,3.08445 -0.2717,85.147484 -0.2717,85.14749 -2.66041,5.67515 c -5.18086,11.05174 -16.26022,19.86675 -24.83959,19.76298 -1.925,-0.0233 -5.77964,-0.91943 -8.56587,-1.99144 z M 236.90509,36.017526 c 1.49425,-0.40044 2.25,-1.36435 2.25,-2.86971 0,-2.91306 -2.12341,-3.46901 -13.31574,-3.48635 -11.21823,-0.0174 -15.25438,2.01624 -11.48427,5.78635 1.26278,1.26278 18.35271,1.69455 22.55001,0.56971 z M 222.96217,184.89781 c -3.73409,-4.34808 -4.29105,-4.25 24.1339,-4.25 h 27.05902 v 3 3 h -24.84501 c -22.42273,0 -24.99155,-0.17062 -26.34791,-1.75 z m -14.64897,-19.25 -2.21799,-3 h 34.02994 34.02994 v 3 3 H 242.34315 210.5312 Z m -13.35103,-16.75 c -3.77202,-4.39225 -5.04839,-4.25 38.1339,-4.25 h 41.05902 v 3 3 h -38.84501 c -35.75607,0 -38.96453,-0.13916 -40.34791,-1.75 z m -14.64897,-19.25 -2.21799,-3 h 48.02994 48.02994 v 3 3 H 228.34315 182.5312 Z m -1.15812,-32.389724 v -17.38973 l 20.99918,0.13973 20.99917,0.13973 8.3e-4,17.25 8.2e-4,17.249994 h -21 -21 z m 53.75526,14.889724 -0.47791,-2.5 h 20.86133 20.86133 v 2.5 2.5 h -20.38342 -20.38343 z m 20.24475,-12.469284 c -20.31739,-0.52598 -20.50279,-0.55075 -20.81286,-2.78071 l -0.31286,-2.25 h 21.06286 21.06286 v 3 c 0,1.65 -0.1125,2.901314 -0.25,2.780714 -0.1375,-0.1206 -9.475,-0.458104 -20.75,-0.750004 z m -20.33333,-14.69738 c -0.36667,-0.36667 -0.66667,-1.78505 -0.66667,-3.15195 v -2.48529 l 17.25,0.6439 c 9.4875,0.35414 18.9375,0.64752 21,0.65195 3.33118,0.007 3.75,0.28727 3.75,2.50806 v 2.5 h -20.33333 c -11.18334,0 -20.63334,-0.3 -21,-0.66667 z m -53.66694,-23.58333 2.6e-4,-6.75 h 47.50001 47.5 l -4e-4,6.75 -4.1e-4,6.75 h -47.49986 -47.49987 z"
       id="path1" />
  </g>
</svg>
